<?xml version="1.0" encoding="iso-8859-1"?>
<!-- Generator: Adobe Illustrator 15.1.0, SVG Export Plug-In . SVG Version: 6.00 Build 0)  -->
<!DOCTYPE svg PUBLIC "-//W3C//DTD SVG 1.1 Basic//EN" "http://www.w3.org/Graphics/SVG/1.1/DTD/svg11-basic.dtd">
<svg version="1.1" baseProfile="basic" id="Layer_1"
	 xmlns="http://www.w3.org/2000/svg" xmlns:xlink="http://www.w3.org/1999/xlink" x="0px" y="0px" width="685.889px" height="326px"
	 viewBox="0 0 685.889 326" xml:space="preserve">
<path fill="#FFFFFF" d="M42.444,0h599l17,11c0,0,6.561-2,14.28,6s11.72,11,12.72,17s0,234,0,234s-1,3-4,9s-8.72,15-8.72,15
	l-28.28,26c0,0,0-1-9,0s-5,8-5,8h-567c0,0-4-4-8-5s-13,1-13,1l-28-30v-8l-14-17V53c0,0-1-8,0-11S42.444,0,42.444,0z"/>
</svg>
