<svg xmlns="http://www.w3.org/2000/svg" width="766.72" height="463.866" viewBox="0 0 766.72 463.866">
  <g id="组_625" data-name="组 625" transform="translate(-157.637 -101.011)">
    <g id="组_108" data-name="组 108" transform="translate(318.371 488.862)">
      <path id="路径_17" data-name="路径 17" d="M339.773,296.159c1.451-3.294,2.812-6.254,4.132-9.255,5.024-11.213,6.9-15.923,11.711-27.089a46.477,46.477,0,0,0,2.837-10.34c.334-1.61-.189-3.406-.389-5.249,4.225-1.1,7.18,0,7.859,3.773a12.78,12.78,0,0,1-.5,6.755c-3.91,10.049-7.872,20.167-12.259,30.1-2.322,5.337-2.054,3.987-5.134,9.034C346.013,297.076,344.809,297.265,339.773,296.159Z" transform="translate(-1.777 -240.623)" fill="#fff" fill-rule="evenodd"/>
      <path id="路径_18" data-name="路径 18" d="M261.194,243.064c-8.962,1.676-17.117,5.148-24.7,8.54-2.333,1.052-4.751,2.021-7.092,2.971-2.752,1.106-5.594,2.256-8.324,3.527-2.155.983-4.359,2.292-4.359,4.458,0,1.339.843,2.79,2.736,4.712a31.828,31.828,0,0,0,9.189,6.443,60.775,60.775,0,0,0,10.238,2.867c1.208.271,2.412.537,3.609.827,2.689.638,5.4,1.23,8.105,1.821,3.4.737,6.788,1.484,10.178,2.311a11.445,11.445,0,0,1,2.552,1.117c.29.145.592.312.915.468-3.22,4.466-7.464,7.516-13.574,9.759a4.018,4.018,0,0,0-1.991-1.988c-1.585-.671-3.442-.033-5.033.671-2.237.936-4.43,2.043-6.547,3.1-.827.427-1.648.841-2.473,1.24l-.816.4.485.758c2.708,4.255,5.923,5.663,10.769,4.723,8.951-1.84,15.772-4.51,21.462-8.373,3.288-2.133,7.922-5.205,7.007-10.34-.893-5.271-6.292-7.4-10.9-8.677-4.116-1.06-8.341-1.988-12.434-2.892-3.259-.726-6.514-1.451-9.765-2.234a94.845,94.845,0,0,1-10.791-3.182,5.5,5.5,0,0,1-1.7-1.227l-.038-.036c9.592-6.454,34.754-14.222,43.023-13.242.129.457.257.906.394,1.4l.682,2.4,1.312-.446a26.471,26.471,0,0,0,3-1.175c3.133-1.484,4.948-2.678,4.948-4.4,0-1.52-1.457-3-5.153-5.26a7.919,7.919,0,0,0-4.127-1.35l-.86-.033A52.434,52.434,0,0,0,261.194,243.064Z" transform="translate(-215.671 -242.654)" fill="#fff"/>
      <path id="路径_19" data-name="路径 19" d="M275.006,259.1c-1.049,1.731-1.692,2.859-1.692,4.052a5.976,5.976,0,0,0,1.643,3.541l4.945,6.476c1.637,2.122,3.929,4.589,7.174,4.756a10.813,10.813,0,0,0,6.093-1.575c.835-.435.926-1.563,1.021-2.768a11.718,11.718,0,0,1,.134-1.2l.151-.748-.75-.189a23.409,23.409,0,0,0-2.684-.468c-2.336-.315-4.228-.559-5.416-2.579,1.618-.458,3.127-.918,4.647-1.4a8.725,8.725,0,0,0,5.476-5.5,8.229,8.229,0,0,0,.468-2.67,5.87,5.87,0,0,0-5.75-5.972C285.083,252.45,279.037,252.864,275.006,259.1ZM290,259.83c-2.629.671-5.3,1.284-7.96,1.9C283.955,257.976,286.887,258.433,290,259.83Z" transform="translate(-117.298 -225.107)" fill="#fff"/>
      <path id="路径_20" data-name="路径 20" d="M260.315,255.463a30.542,30.542,0,0,0-1.977,2.445c-.3.389-.6.791-.934,1.2-.356-.214-.685-.4-1-.591a17.494,17.494,0,0,0-3.094-1.6,5.1,5.1,0,0,0-4.589.435,3.915,3.915,0,0,0-1.635,3.272l-.008.693c0,5.613.671,11.366,5.539,15.463a5.17,5.17,0,0,0,4.685,1.273c1.6-.414,1.791-3.719,2.478-5.537a17.706,17.706,0,0,0,.6-2.412,12.88,12.88,0,0,1,.649-2.481c.529-1.383.115-2.7.876-4.107.118-.214,1.366-.435,1.484-.66,1.084,1.317,3.127,4.8,4.031,6.221,2.782,4.343,5.654,8.831,12.864,9.321l1.128.069-.29-1.085c-.241-.914-.441-1.741-.622-2.489a28.428,28.428,0,0,0-1.21-4.154c-.816-2-1.832-3.965-2.815-5.863L275.1,262.2a64.788,64.788,0,0,0-3.39-6.139c-1.659-2.478-3.516-3.787-5.52-3.886S262.2,253.185,260.315,255.463Z" transform="translate(-162.897 -226.11)" fill="#fff"/>
      <path id="路径_21" data-name="路径 21" d="M266.041,259.168l-.57.671c-2.245,2.533-3.338,4.945-3.338,7.358,0,3.406,2.086,6.766,6.739,10.887,2.823,2.7,7.867,2.344,12.733,2l1.306-.09c1.224-.011,2.19-1.038,3.127-2.032.353-.37.7-.748,1.057-1.052l.693-.581-.655-.624c-.323-.3-.633-.657-.937-1a6.6,6.6,0,0,0-2.7-2.2,22.276,22.276,0,0,0-4.321-1.106,22.77,22.77,0,0,1-3.609-.86c-2.839-1.027-3.281-2.935-1.038-4.778a22.369,22.369,0,0,1,4.964-2.892c.841-.4,1.692-.816,2.522-1.262,1.719-.972,2.708-2.357,2.708-3.8a3.8,3.8,0,0,0-1.8-3.092,11.009,11.009,0,0,0-6.148-2.166C271.752,252.457,268.85,255.874,266.041,259.168Z" transform="translate(-136.733 -225.461)" fill="#fff"/>
      <path id="路径_22" data-name="路径 22" d="M248.6,255.5c-.476.123-1,.211-1.547.3a8.123,8.123,0,0,0-4.025,1.408c-1.714,1.542-1.971,4.556-1.971,6.221,0,3.65,1.224,8.261,3.582,10.027a5.983,5.983,0,0,0,5.542.613,2.645,2.645,0,0,0,1.662-2.2c.068-1.1.1-2.2.1-3.305,0-2.536-.151-5.137-.3-7.662l-.118-2.042a3.422,3.422,0,0,0-1.145-1.977,13.874,13.874,0,0,1-.926-1.092l-.323-.427Z" transform="translate(-173.373 -220.563)" fill="#fff"/>
      <path id="路径_23" data-name="路径 23" d="M238.985,250.993a5.541,5.541,0,0,0-1.071,4.836,6.027,6.027,0,0,0,6.03,3.65c4.074-.378,7.716-1.553,10.561-5.515a15.632,15.632,0,0,0-1.8-2.47C250.767,249.988,240.617,249.252,238.985,250.993Z" transform="translate(-179.182 -229.915)" fill="#fff"/>
      <path id="路径_24" data-name="路径 24" d="M354.476,258.108c-6.21-1.407-10.131,1.372-13.724,4.655-2.267,2.111-4.1,4.513-6.287,6.555-4.042,3.951-5.953,3.6-8.787-1.183a11.533,11.533,0,0,0-1.1-1.454c3.349-3.437,6.465-6.342,9.135-9.524a59.848,59.848,0,0,0,6.487-8.62c2.267-3.606,4.028-4.513,7.056-1.607,2.377,2.2,4.967,2.936,7.894,3.7,6.566,1.8,8.707,6.2,5.906,12.527a41.805,41.805,0,0,1-5.416,9.389c-5.279,6.936-10.862,13.557-16.547,20.123-2.333,2.711-5.315,2.344-6.109-.594a5.434,5.434,0,0,1,1.128-4.165c5.408-7.013,11.166-13.855,16.391-20.9C352.307,264.494,353.112,261.246,354.476,258.108Z" transform="translate(-28.181 -238.224)" fill="#fff" fill-rule="evenodd"/>
      <path id="路径_25" data-name="路径 25" d="M320.784,252.061c-1.909.57-3.327.917-4.488,1.4-1.43.638-3.25,1.262-4.031,2.445-4.077,5.718-8.083,11.49-9.759,18.647-1.1,4.789-1.016,9.157,3.584,12.349.413.268.5.994,1.172,2.336-1.821.255-3.371.835-4.589.422-3.138-1.016-5.917-2.88-6.98-6.229-1.662-5.2-2.42-10.7-.123-15.846a104.258,104.258,0,0,1,9.058-16.413C309.105,244.479,314.7,244.75,320.784,252.061Z" transform="translate(-81.117 -236.221)" fill="#fff" fill-rule="evenodd"/>
      <path id="路径_26" data-name="路径 26" d="M340.491,246.746c-3.072-2.579-6.153-2.612-9.523-.759-3.73,2.01-7.648,3.708-11.087,6.219-4.578,3.316-10.107,5.841-12.171,11.848,2.467,7.045,4.778,8.319,11.714,6.287,2.645-.8,5.181-2.043,8.765-3.486-3.719,6.49-7.661,11.681-9.827,17.922-1.687,4.836-1.9,5.474,3.182,8.141.526-.791,1.194-1.553,1.687-2.344,4.233-7.158,8.442-14.228,12.639-21.383,1.106-1.955,2.311-3.453,5.06-3.664,1.158-.088,2.689-1.6,3.149-2.724.792-2.111.679-4.376,1.238-6.555C346.49,251.571,343.53,249.282,340.491,246.746Zm-20.342,14.617c5.86-5.83,8.809-7.347,14.748-8.308C331.885,258.778,326.644,261.363,320.149,261.363Z" transform="translate(-57.512 -239.113)" fill="#fff"/>
      <g id="组_107" data-name="组 107" transform="translate(0 64.517)">
        <g id="组_105" data-name="组 105">
          <path id="路径_27" data-name="路径 27" d="M216.408,276.419l-.071-3.037c2.812-.079,276.18-10.161,361.451-6.276l-.058,3.171C492.517,266.392,219.2,276.329,216.408,276.419Z" transform="translate(-216.337 -266.216)" fill="#fff"/>
        </g>
        <g id="组_106" data-name="组 106" transform="translate(4.151 4.65)">
          <path id="路径_28" data-name="路径 28" d="M217.853,273.569V270.4c2.944-.033,296.471-6.342,368.576,1.287l-.088,3.08C514.258,267.1,220.8,273.446,217.853,273.569Z" transform="translate(-217.853 -267.914)" fill="#fff"/>
        </g>
      </g>
    </g>
    <path id="路径_29" data-name="路径 29" d="M326.913,163.816a71.937,71.937,0,0,0,25.991.586c-3,.205-6.051.375-9.291.375A153.938,153.938,0,0,1,326.913,163.816Z" transform="translate(294.24 109.169)" fill="#fff"/>
    <path id="路径_30" data-name="路径 30" d="M515.875,125.432c-14.786-16.09-36.224-24.263-63.644-24.263-26.8,0-47.979,8.327-62.9,24.748-14.989,16.531-22.566,39.986-22.566,69.723,0,21.334,3.839,39.34,11.418,53.543,7.459,13.946,17.41,24.329,29.617,30.879,12.221,6.522,27.829,9.827,46.4,9.827,18.33,0,33.834-3.836,46.051-11.385a73.669,73.669,0,0,0,28.163-31.665c6.484-13.664,9.767-31.416,9.767-52.744,0-29.329-7.489-52.44-22.308-68.664M480.478,238.2c-6.569,8.6-15.988,12.977-27.976,12.977-11.588,0-20.95-4.444-27.8-13.206-6.736-8.776-10-22.541-10-42.122,0-19.5,3.423-33.721,10.142-42.275,6.7-8.784,15.879-13.242,27.212-13.242,11.725,0,21.131,4.4,27.974,13.1,6.747,8.42,10.167,21.824,10.167,39.869,0,21.668-3.157,36.342-9.723,44.9" transform="translate(363.517 0.275)" fill="#fff"/>
    <path id="路径_31" data-name="路径 31" d="M331.517,234.6c-5.3-15.682-13.948-26.752-26.366-31.287l-7.018-2.505,7.237-1.848c6.008-1.449,16.531-7.366,22.078-18.078,3.108-6.112,3.968-15.405,3.968-24.68,0-7.8.23-18.283-2.185-23.844-11.229-26.1-31.769-27.919-40.775-29.288a241.962,241.962,0,0,0-34.447-2.054H157.645l-.008,189.064H206.3V222.736H245.1c8.9,0,15.427,1.057,19.893,3.029,4.556,1.977,9.51,5.011,11.914,9.121,2.278,4.02,16.462,55.189,16.462,55.189H344.94S336.818,250.3,331.517,234.6Zm-57.385-55.351c-4.756,3.7-12.566,5.652-23.141,5.652H206.3l.008-50.712h45.449c10.805,0,18.215,1.826,22.683,5.5,4.417,3.653,6.753,6.06,6.753,20.712,0,11.172-2.437,15.014-7.059,18.853" transform="translate(0 0)" fill="#fff"/>
    <path id="路径_32" data-name="路径 32" d="M353.759,101.29h-55.5l-65.542,188.3h44.8l10.047-31.824h74.877l10.167,31.824h46.624Zm-54.02,119.428,21.66-67.741a3.9,3.9,0,0,1,3.773-3.256,3.51,3.51,0,0,1,3.7,2.744l22.01,68.253Z" transform="translate(130.504 0.485)" fill="#fff"/>
    <path id="路径_33" data-name="路径 33" d="M468.109,228.781l-43.94-13.968c-2.519,11.054-6.46,19.759-11.736,25.884-5.821,6.648-14.419,10.022-25.6,10.022-11.52,0-20.589-4.143-26.988-12.352-6.457-8.324-9.609-22.823-9.609-44.337,0-17.185,2.7-30.063,7.985-38.33,7.01-11.156,17.333-16.846,30.619-16.846a33.059,33.059,0,0,1,15.98,3.866,34.022,34.022,0,0,1,12.106,10.9A43.24,43.24,0,0,1,422,164.849l43.039-10c-13.806-31.731-43.064-53.683-77.018-53.683-47.232,0-85.52,42.358-85.52,94.63,0,46.706,30.589,85.392,70.778,93.13A154.143,154.143,0,0,0,390,289.89c3.226,0,6.276-.17,9.285-.375C431.053,284.888,457.26,261.013,468.109,228.781Z" transform="translate(251.812 0.275)" fill="#fff"/>
    <path id="路径_34" data-name="路径 34" d="M614.4,184.617a7.761,7.761,0,0,1-7.725,7.851H240.164a7.764,7.764,0,0,1-7.686-7.851h0a7.757,7.757,0,0,1,7.686-7.85H606.676a7.754,7.754,0,0,1,7.725,7.85Z" transform="translate(130.091 131.681)" fill="#fff"/>
    <g id="组_109" data-name="组 109" transform="translate(260.608 308.448)">
      <path id="路径_35" data-name="路径 35" d="M281.518,177.925v21.607h-61.87v27.423h52.807V247.9H219.648v24.778h63.086V294.3H195.242V177.925Z" transform="translate(-195.242 -174.754)" fill="#fff"/>
      <path id="路径_36" data-name="路径 36" d="M259.578,188.85l17.432,28.091h.348l17.423-28.091h28.061l-30.329,43.39,30.507,43.067H294.959l-17.6-27.768h-.348L259.4,275.307H231.339l30.854-43.067-30.854-43.39Z" transform="translate(-132.497 -155.764)" fill="#fff"/>
      <path id="路径_37" data-name="路径 37" d="M362.194,233.457c0,23.606-14.986,44.554-43.045,44.554-6.1,0-19.693-3.16-25.624-12.629v39.239H270.173V189.9h19.173l4.178,11.8a33.431,33.431,0,0,1,25.8-13.456C345.992,188.246,362.194,207.687,362.194,233.457Zm-71.106-.334c0,14.628,9.233,24.934,24.047,24.934,12.727,0,23.357-10.126,23.357-24.934,0-15.131-10.63-24.934-23.357-24.934C302.243,208.188,291.087,217.167,291.087,233.123Z" transform="translate(-64.995 -156.814)" fill="#fff"/>
      <path id="路径_38" data-name="路径 38" d="M353.972,188.246c28.059,0,41.659,20.769,41.659,43.716a53.4,53.4,0,0,1-.876,9.973H333.93c1.046,12.3,12.2,16.961,23,16.961a68.827,68.827,0,0,0,25.622-5.148l8.023,16.783c-9.066,4.992-21.963,7.481-34.162,7.481-27.361,0-47.41-17.62-47.41-44.05C309.007,207.364,327.137,188.246,353.972,188.246Zm19,37.73c-.529-9.48-4.359-17.788-17.612-17.788-11.323,0-19.515,6.153-21.78,17.788Z" transform="translate(2.507 -156.814)" fill="#fff"/>
      <path id="路径_39" data-name="路径 39" d="M366.309,189.674l3.143,13.647c5.572-10.978,14.984-14.471,31.016-14.471v23.6h-2.955c-15.345,0-26.32,5.663-26.32,24.274v38.579H347.141V189.674Z" transform="translate(68.793 -155.764)" fill="#fff"/>
      <path id="路径_40" data-name="路径 40" d="M406.267,176.767v33.086h19v16.96h-19v41.895c0,4.655,2.44,8.645,8.885,8.645a97.436,97.436,0,0,0,10.635-1l3.483,16.125a47.025,47.025,0,0,1-17.946,3.828c-21.443,0-28.937-9.48-28.937-30.761V226.814h-12.2V213.347l12.2-3.327V176.767Z" transform="translate(108.85 -176.767)" fill="#fff"/>
    </g>
    <g id="组_110" data-name="组 110" transform="translate(891.605 113.226)">
      <path id="路径_41" data-name="路径 41" d="M458.434,121.411a16.382,16.382,0,1,1-16.328-15.939A16.016,16.016,0,0,1,458.434,121.411Zm-28.666,0c0,7.095,5.246,12.73,12.44,12.73,6.993,0,12.147-5.635,12.147-12.634,0-7.095-5.153-12.826-12.248-12.826S429.767,114.412,429.767,121.411Zm9.814,8.357h-3.694V113.829a32.4,32.4,0,0,1,6.123-.485c3.012,0,4.373.485,5.539,1.166a4.418,4.418,0,0,1,1.555,3.5c0,1.747-1.361,3.111-3.305,3.691v.194c1.555.583,2.432,1.75,2.916,3.888.485,2.429.778,3.4,1.167,3.984H445.9c-.488-.583-.778-2.04-1.265-3.888-.29-1.747-1.262-2.525-3.305-2.525h-1.747Zm.1-9.039h1.747c2.04,0,3.694-.679,3.694-2.333,0-1.457-1.07-2.429-3.4-2.429a8.874,8.874,0,0,0-2.04.194Z" transform="translate(-425.682 -105.472)" fill="#fff"/>
    </g>
  </g>
</svg>
